REM DIRINDEX 1\2,1\3,1\4,1\5
REM DIRNAME cjc004,folder01,folder02,folder03,folder04
TITLE ""
FILE "1Q_t_0810-0819.mp3" MP3
  TRACK 01 AUDIO
    TITLE "3:cjc004_3333"
    INDEX 01 00:00:00
  TRACK 02 AUDIO
    TITLE "0:"
    INDEX 01 00:01:13
  TRACK 03 AUDIO
    TITLE "4:cjc004_3334"
    INDEX 01 00:01:44
  TRACK 04 AUDIO
    TITLE "0:"
    INDEX 01 00:03:12
  TRACK 05 AUDIO
    TITLE "5:cjc004_3335"
    INDEX 01 00:03:37
  TRACK 06 AUDIO
    TITLE "0:"
    INDEX 01 00:08:68
  TRACK 07 AUDIO
    TITLE "3:cjc004_3336"
    INDEX 01 00:09:45
  TRACK 08 AUDIO
    TITLE "0:"
    INDEX 01 00:10:61
  TRACK 09 AUDIO
    TITLE "4:cjc004_3337"
    INDEX 01 00:11:13
  TRACK 10 AUDIO
    TITLE "0:"
    INDEX 01 00:12:32
  TRACK 11 AUDIO
    TITLE "5:cjc004_3338"
    INDEX 01 00:12:60
  TRACK 12 AUDIO
    TITLE "0:"
    INDEX 01 00:17:16
  TRACK 13 AUDIO
    TITLE "3:cjc004_3339"
    INDEX 01 00:17:72
  TRACK 14 AUDIO
    TITLE "0:"
    INDEX 01 00:19:11
  TRACK 15 AUDIO
    TITLE "4:cjc004_3340"
    INDEX 01 00:19:38
  TRACK 16 AUDIO
    TITLE "0:"
    INDEX 01 00:20:59
  TRACK 17 AUDIO
    TITLE "5:cjc004_3341"
    INDEX 01 00:21:11
  TRACK 18 AUDIO
    TITLE "0:"
    INDEX 01 00:25:15
  TRACK 19 AUDIO
    TITLE "3:cjc004_3342"
    INDEX 01 00:25:74
  TRACK 20 AUDIO
    TITLE "0:"
    INDEX 01 00:27:14
  TRACK 21 AUDIO
    TITLE "4:cjc004_3343"
    INDEX 01 00:27:38
  TRACK 22 AUDIO
    TITLE "0:"
    INDEX 01 00:28:51
  TRACK 23 AUDIO
    TITLE "5:cjc004_3344"
    INDEX 01 00:29:01
  TRACK 24 AUDIO
    TITLE "0:"
    INDEX 01 00:33:03
  TRACK 25 AUDIO
    TITLE "3:cjc004_3345"
    INDEX 01 00:33:58
  TRACK 26 AUDIO
    TITLE "0:"
    INDEX 01 00:35:02
  TRACK 27 AUDIO
    TITLE "4:cjc004_3346"
    INDEX 01 00:35:33
  TRACK 28 AUDIO
    TITLE "0:"
    INDEX 01 00:36:46
  TRACK 29 AUDIO
    TITLE "5:cjc004_3347"
    INDEX 01 00:36:72
  TRACK 30 AUDIO
    TITLE "0:"
    INDEX 01 00:41:61
  TRACK 31 AUDIO
    TITLE "3:cjc004_3348"
    INDEX 01 00:42:41
  TRACK 32 AUDIO
    TITLE "0:"
    INDEX 01 00:43:54
  TRACK 33 AUDIO
    TITLE "4:cjc004_3349"
    INDEX 01 00:44:12
  TRACK 34 AUDIO
    TITLE "0:"
    INDEX 01 00:46:00
  TRACK 35 AUDIO
    TITLE "5:cjc004_3350"
    INDEX 01 00:46:27
  TRACK 36 AUDIO
    TITLE "0:"
    INDEX 01 00:50:37
  TRACK 37 AUDIO
    TITLE "3:cjc004_3351"
    INDEX 01 00:51:20
  TRACK 38 AUDIO
    TITLE "0:"
    INDEX 01 00:52:45
  TRACK 39 AUDIO
    TITLE "4:cjc004_3352"
    INDEX 01 00:53:00
  TRACK 40 AUDIO
    TITLE "0:"
    INDEX 01 00:54:30
  TRACK 41 AUDIO
    TITLE "5:cjc004_3353"
    INDEX 01 00:54:56
  TRACK 42 AUDIO
    TITLE "0:"
    INDEX 01 00:58:69
  TRACK 43 AUDIO
    TITLE "3:cjc004_3354"
    INDEX 01 00:59:45
  TRACK 44 AUDIO
    TITLE "0:"
    INDEX 01 01:00:55
  TRACK 45 AUDIO
    TITLE "4:cjc004_3355"
    INDEX 01 01:01:13
  TRACK 46 AUDIO
    TITLE "0:"
    INDEX 01 01:02:24
  TRACK 47 AUDIO
    TITLE "5:cjc004_3356"
    INDEX 01 01:02:52
  TRACK 48 AUDIO
    TITLE "0:"
    INDEX 01 01:07:39
  TRACK 49 AUDIO
    TITLE "3:cjc004_3357"
    INDEX 01 01:08:19
  TRACK 50 AUDIO
    TITLE "0:"
    INDEX 01 01:09:22
  TRACK 51 AUDIO
    TITLE "4:cjc004_3358"
    INDEX 01 01:09:57
  TRACK 52 AUDIO
    TITLE "0:"
    INDEX 01 01:11:27
  TRACK 53 AUDIO
    TITLE "5:cjc004_3359"
    INDEX 01 01:11:52
  TRACK 54 AUDIO
    TITLE "0:"
    INDEX 01 01:16:44
  TRACK 55 AUDIO
    TITLE "3:cjc004_3360"
    INDEX 01 01:17:22
  TRACK 56 AUDIO
    TITLE "0:"
    INDEX 01 01:18:54
  TRACK 57 AUDIO
    TITLE "4:cjc004_3361"
    INDEX 01 01:19:13
  TRACK 58 AUDIO
    TITLE "0:"
    INDEX 01 01:20:48
  TRACK 59 AUDIO
    TITLE "5:cjc004_3362"
    INDEX 01 01:20:71
  TRACK 60 AUDIO
    TITLE "0:"
    INDEX 01 01:26:50
